<mxfile host="65bd71144e">
    <diagram id="n5W9dpHo_4uRlmlUV37y" name="Page-1">
        <mxGraphModel dx="4195" dy="1600" grid="1" gridSize="10" guides="1" tooltips="1" connect="1" arrows="1" fold="1" page="1" pageScale="1" pageWidth="1700" pageHeight="1100" background="#FFFFFF" math="0" shadow="0">
            <root>
                <mxCell id="0"/>
                <mxCell id="1" parent="0"/>
                <mxCell id="Vt560z4J3A8kVG_z0Vwq-2" value="" style="rounded=1;whiteSpace=wrap;html=1;fontSize=20;fillColor=none;arcSize=2;dashed=1;" parent="1" vertex="1">
                    <mxGeometry x="-10" y="330" width="1320" height="880" as="geometry"/>
                </mxCell>
                <mxCell id="70" value="MDAA DataOps Project Module" style="rounded=1;whiteSpace=wrap;html=1;fontSize=20;fillColor=none;arcSize=2;dashed=1;labelPosition=center;verticalLabelPosition=top;align=center;verticalAlign=bottom;strokeColor=#FF8000;strokeWidth=5;" parent="1" vertex="1">
                    <mxGeometry x="806.14" y="630" width="370" height="180" as="geometry"/>
                </mxCell>
                <mxCell id="Vt560z4J3A8kVG_z0Vwq-4" value="Deployment/Target&lt;br style=&quot;font-size: 20px;&quot;&gt;Account" style="outlineConnect=0;dashed=0;verticalLabelPosition=middle;verticalAlign=middle;align=left;html=1;shape=mxgraph.aws3.cloud_2;fillColor=#F58534;gradientColor=none;labelPosition=right;fontSize=20;" parent="1" vertex="1">
                    <mxGeometry x="-10" y="330" width="60" height="60" as="geometry"/>
                </mxCell>
                <mxCell id="Vt560z4J3A8kVG_z0Vwq-16" value="Existing &lt;br&gt;Datalake&lt;br&gt;Bucket" style="sketch=0;points=[[0,0,0],[0.25,0,0],[0.5,0,0],[0.75,0,0],[1,0,0],[0,1,0],[0.25,1,0],[0.5,1,0],[0.75,1,0],[1,1,0],[0,0.25,0],[0,0.5,0],[0,0.75,0],[1,0.25,0],[1,0.5,0],[1,0.75,0]];outlineConnect=0;fontColor=#232F3E;gradientColor=#60A337;gradientDirection=north;fillColor=#277116;strokeColor=#ffffff;dashed=0;verticalLabelPosition=middle;verticalAlign=middle;align=right;html=1;fontSize=16;fontStyle=0;aspect=fixed;shape=mxgraph.aws4.resourceIcon;resIcon=mxgraph.aws4.s3;labelPosition=left;" parent="1" vertex="1">
                    <mxGeometry x="400" y="1010" width="78" height="78" as="geometry"/>
                </mxCell>
                <mxCell id="101" value="&lt;meta charset=&quot;utf-8&quot;&gt;&lt;span style=&quot;color: rgb(0, 0, 0); font-family: Helvetica; font-size: 16px; font-style: normal; font-variant-ligatures: normal; font-variant-caps: normal; font-weight: 400; letter-spacing: normal; orphans: 2; text-align: center; text-indent: 0px; text-transform: none; widows: 2; word-spacing: 0px; -webkit-text-stroke-width: 0px; background-color: rgb(255, 255, 255); text-decoration-thickness: initial; text-decoration-style: initial; text-decoration-color: initial; float: none; display: inline !important;&quot;&gt;/path/to/your/data&lt;/span&gt;" style="edgeStyle=orthogonalEdgeStyle;html=1;entryX=1;entryY=0.5;entryDx=0;entryDy=0;entryPerimeter=0;" edge="1" parent="1" source="34" target="Vt560z4J3A8kVG_z0Vwq-16">
                    <mxGeometry relative="1" as="geometry">
                        <Array as="points">
                            <mxPoint x="1000" y="1049"/>
                        </Array>
                    </mxGeometry>
                </mxCell>
                <mxCell id="34" value="Sample Database" style="sketch=0;points=[[0,0,0],[0.25,0,0],[0.5,0,0],[0.75,0,0],[1,0,0],[0,1,0],[0.25,1,0],[0.5,1,0],[0.75,1,0],[1,1,0],[0,0.25,0],[0,0.5,0],[0,0.75,0],[1,0.25,0],[1,0.5,0],[1,0.75,0]];outlineConnect=0;fontColor=#232F3E;gradientColor=#945DF2;gradientDirection=north;fillColor=#5A30B5;strokeColor=#ffffff;dashed=0;verticalLabelPosition=top;verticalAlign=bottom;align=center;html=1;fontSize=16;fontStyle=0;aspect=fixed;shape=mxgraph.aws4.resourceIcon;resIcon=mxgraph.aws4.glue;labelPosition=center;" parent="1" vertex="1">
                    <mxGeometry x="952.14" y="700" width="78" height="78" as="geometry"/>
                </mxCell>
                <mxCell id="72" value="MDAA DataOps Crawler Module" style="rounded=1;whiteSpace=wrap;html=1;fontSize=20;fillColor=none;arcSize=2;dashed=1;labelPosition=center;verticalLabelPosition=top;align=center;verticalAlign=bottom;strokeColor=#FF8000;strokeWidth=5;" parent="1" vertex="1">
                    <mxGeometry x="220" y="450" width="460" height="180" as="geometry"/>
                </mxCell>
                <mxCell id="76" value="Creates" style="edgeStyle=orthogonalEdgeStyle;rounded=0;html=1;entryX=0.5;entryY=0;entryDx=0;entryDy=0;entryPerimeter=0;fontSize=16;" parent="1" source="73" target="75" edge="1">
                    <mxGeometry relative="1" as="geometry"/>
                </mxCell>
                <mxCell id="111" value="Runs As" style="edgeStyle=orthogonalEdgeStyle;html=1;entryX=0;entryY=0.5;entryDx=0;entryDy=0;fontSize=16;" edge="1" parent="1" source="73" target="107">
                    <mxGeometry relative="1" as="geometry">
                        <Array as="points">
                            <mxPoint x="640" y="540"/>
                            <mxPoint x="640" y="417"/>
                        </Array>
                    </mxGeometry>
                </mxCell>
                <mxCell id="73" value="Crawler1" style="sketch=0;points=[[0,0,0],[0.25,0,0],[0.5,0,0],[0.75,0,0],[1,0,0],[0,1,0],[0.25,1,0],[0.5,1,0],[0.75,1,0],[1,1,0],[0,0.25,0],[0,0.5,0],[0,0.75,0],[1,0.25,0],[1,0.5,0],[1,0.75,0]];outlineConnect=0;fontColor=#232F3E;gradientColor=#945DF2;gradientDirection=north;fillColor=#5A30B5;strokeColor=#ffffff;dashed=0;verticalLabelPosition=middle;verticalAlign=middle;align=right;html=1;fontSize=16;fontStyle=0;aspect=fixed;shape=mxgraph.aws4.resourceIcon;resIcon=mxgraph.aws4.glue;labelPosition=left;" parent="1" vertex="1">
                    <mxGeometry x="400" y="501" width="78" height="78" as="geometry"/>
                </mxCell>
                <mxCell id="77" value="Created In" style="edgeStyle=orthogonalEdgeStyle;rounded=0;html=1;entryX=0;entryY=0.5;entryDx=0;entryDy=0;entryPerimeter=0;fontSize=16;exitX=1;exitY=0.5;exitDx=0;exitDy=0;exitPerimeter=0;" parent="1" source="75" target="34" edge="1">
                    <mxGeometry relative="1" as="geometry">
                        <Array as="points">
                            <mxPoint x="740" y="740"/>
                            <mxPoint x="952" y="739"/>
                        </Array>
                    </mxGeometry>
                </mxCell>
                <mxCell id="78" value="&lt;span style=&quot;color: rgb(0, 0, 0); font-family: Helvetica; font-size: 16px; font-style: normal; font-variant-ligatures: normal; font-variant-caps: normal; font-weight: 400; letter-spacing: normal; orphans: 2; text-align: center; text-indent: 0px; text-transform: none; widows: 2; word-spacing: 0px; -webkit-text-stroke-width: 0px; background-color: rgb(255, 255, 255); text-decoration-thickness: initial; text-decoration-style: initial; text-decoration-color: initial; float: none; display: inline !important;&quot;&gt;/path/to/your/data&lt;/span&gt;" style="edgeStyle=orthogonalEdgeStyle;rounded=0;html=1;entryX=0.5;entryY=0;entryDx=0;entryDy=0;entryPerimeter=0;fontSize=16;" parent="1" source="75" target="Vt560z4J3A8kVG_z0Vwq-16" edge="1">
                    <mxGeometry x="0.1422" y="1" relative="1" as="geometry">
                        <Array as="points">
                            <mxPoint x="439" y="910"/>
                            <mxPoint x="439" y="910"/>
                        </Array>
                        <mxPoint as="offset"/>
                    </mxGeometry>
                </mxCell>
                <mxCell id="75" value="Glue Tables" style="sketch=0;points=[[0,0,0],[0.25,0,0],[0.5,0,0],[0.75,0,0],[1,0,0],[0,1,0],[0.25,1,0],[0.5,1,0],[0.75,1,0],[1,1,0],[0,0.25,0],[0,0.5,0],[0,0.75,0],[1,0.25,0],[1,0.5,0],[1,0.75,0]];outlineConnect=0;fontColor=#232F3E;gradientColor=#945DF2;gradientDirection=north;fillColor=#5A30B5;strokeColor=#ffffff;dashed=0;verticalLabelPosition=middle;verticalAlign=middle;align=right;html=1;fontSize=16;fontStyle=0;aspect=fixed;shape=mxgraph.aws4.resourceIcon;resIcon=mxgraph.aws4.glue;labelPosition=left;" parent="1" vertex="1">
                    <mxGeometry x="400" y="700" width="78" height="78" as="geometry"/>
                </mxCell>
                <mxCell id="105" value="MDAA Roles Module&amp;nbsp;" style="rounded=1;whiteSpace=wrap;html=1;fontSize=20;fillColor=none;arcSize=2;dashed=1;labelPosition=center;verticalLabelPosition=bottom;align=center;verticalAlign=top;strokeColor=#FF8000;strokeWidth=5;" vertex="1" parent="1">
                    <mxGeometry x="806.14" y="350" width="360" height="190" as="geometry"/>
                </mxCell>
                <mxCell id="106" value="IAM Managed&lt;br style=&quot;font-size: 16px;&quot;&gt;Policies" style="sketch=0;points=[[0,0,0],[0.25,0,0],[0.5,0,0],[0.75,0,0],[1,0,0],[0,1,0],[0.25,1,0],[0.5,1,0],[0.75,1,0],[1,1,0],[0,0.25,0],[0,0.5,0],[0,0.75,0],[1,0.25,0],[1,0.5,0],[1,0.75,0]];outlineConnect=0;fontColor=#232F3E;gradientColor=#F54749;gradientDirection=north;fillColor=#C7131F;strokeColor=#ffffff;dashed=0;verticalLabelPosition=bottom;verticalAlign=top;align=center;html=1;fontSize=16;fontStyle=0;aspect=fixed;shape=mxgraph.aws4.resourceIcon;resIcon=mxgraph.aws4.identity_and_access_management;labelPosition=center;" vertex="1" parent="1">
                    <mxGeometry x="1026.1399999999999" y="370" width="78" height="78" as="geometry"/>
                </mxCell>
                <mxCell id="117" value="" style="group" vertex="1" connectable="0" parent="1">
                    <mxGeometry x="847" y="383" width="108" height="98" as="geometry"/>
                </mxCell>
                <mxCell id="107" value="" style="rounded=0;whiteSpace=wrap;html=1;verticalAlign=top;fillColor=#C7131F;strokeColor=#ffffff;fontColor=#232F3E;sketch=0;gradientColor=#F54749;gradientDirection=north;dashed=0;fontStyle=0;" vertex="1" parent="117">
                    <mxGeometry x="7" width="82.14" height="68" as="geometry"/>
                </mxCell>
                <mxCell id="108" value="" style="sketch=0;outlineConnect=0;dashed=0;verticalLabelPosition=bottom;verticalAlign=top;align=center;html=1;fontSize=12;fontStyle=0;aspect=fixed;pointerEvents=1;shape=mxgraph.aws4.role;" vertex="1" parent="117">
                    <mxGeometry x="19.009999999999877" y="14" width="60.27" height="34" as="geometry"/>
                </mxCell>
                <mxCell id="110" value="Glue ETL Role" style="text;html=1;strokeColor=none;fillColor=none;align=center;verticalAlign=middle;whiteSpace=wrap;rounded=0;fontSize=16;" vertex="1" parent="117">
                    <mxGeometry y="68" width="108" height="30" as="geometry"/>
                </mxCell>
                <mxCell id="118" value="" style="group" vertex="1" connectable="0" parent="1">
                    <mxGeometry x="600" y="860" width="108" height="98" as="geometry"/>
                </mxCell>
                <mxCell id="119" value="" style="rounded=0;whiteSpace=wrap;html=1;verticalAlign=top;fillColor=#C7131F;strokeColor=#ffffff;fontColor=#232F3E;sketch=0;gradientColor=#F54749;gradientDirection=north;dashed=0;fontStyle=0;" vertex="1" parent="118">
                    <mxGeometry x="7" width="82.14" height="68" as="geometry"/>
                </mxCell>
                <mxCell id="120" value="" style="sketch=0;outlineConnect=0;dashed=0;verticalLabelPosition=bottom;verticalAlign=top;align=center;html=1;fontSize=12;fontStyle=0;aspect=fixed;pointerEvents=1;shape=mxgraph.aws4.role;" vertex="1" parent="118">
                    <mxGeometry x="19.009999999999877" y="14" width="60.27" height="34" as="geometry"/>
                </mxCell>
                <mxCell id="121" value="&lt;br&gt;Existing Data Admin Role" style="text;html=1;strokeColor=none;fillColor=none;align=center;verticalAlign=middle;whiteSpace=wrap;rounded=0;fontSize=16;" vertex="1" parent="118">
                    <mxGeometry y="68" width="108" height="30" as="geometry"/>
                </mxCell>
            </root>
        </mxGraphModel>
    </diagram>
</mxfile>